<svg xmlns="http://www.w3.org/2000/svg" viewBox="0 -9.761 532.467 84.923" height="84.923" width="532.47" fill="#2479be"><title>Kanban Tool</title><path d="M20.646 42.3c2.198 1.688 4.52 3.773 6.973 6.262s4.87 5.18 7.25 8.07c2.378 2.896 4.627 5.82 6.752 8.786s4.06 6.276 5.528 8.837H35.177c-1.54-2.56-3.46-5.727-5.472-8.396a118.34 118.34 0 0 0-6.313-7.688c-2.196-2.455-4.43-4.705-6.698-6.756s-4.43-3.77-6.48-5.16v28H0v-83.34h10.214V40.54l5.82-5.824c2.125-2.12 4.2-4.28 6.26-6.48l5.82-6.314 6.2-6.82h11.97l-6.97 7.533c-1.976 2.197-4.026 4.412-6.15 6.644l-6.424 6.7-6.095 6.3zm91.15-24.05l9.333-1.866c3.882-.658 8.348-.988 13.398-.988 4.54 0 8.3.642 11.312 1.922s5.397 3.075 7.192 5.38 3.057 5.07 3.8 8.292 1.1 6.77 1.1 10.653v32.6h-10.214V43.828c0-3.515-.24-6.513-.714-9.004s-1.262-4.5-2.36-6.04-2.563-2.65-4.394-3.35-4.1-1.044-6.8-1.044c-1.097 0-2.232.037-3.402.112a86.55 86.55 0 0 0-3.353.273c-1.063.1-2.013.237-2.854.385l-1.813.327v48.757h-10.2l.001-56.004zm180.2 0l9.336-1.866c3.88-.658 8.348-.988 13.398-.988 4.537 0 8.307.642 11.3 1.922s5.396 3.075 7.197 5.38c1.8 2.307 3.053 5.07 3.787 8.292s1.098 6.77 1.098 10.653v32.6H327.9V43.828c0-3.515-.238-6.513-.717-9.004s-1.262-4.5-2.357-6.04c-1.102-1.538-2.564-2.65-4.393-3.35s-4.105-1.044-6.812-1.044a53.25 53.25 0 0 0-3.402.112c-1.172.07-2.3.163-3.352.273s-2.014.237-2.854.385l-1.812.327v48.757h-10.215V18.24zm-109.14.88c1.244-.805 3.13-1.646 5.655-2.524s5.436-1.318 8.73-1.318c4.098 0 7.743.732 10.927 2.197s5.874 3.515 8.07 6.15 3.86 5.782 4.998 9.44c1.134 3.664 1.7 7.7 1.7 12.083 0 4.6-.68 8.77-2.03 12.464s-3.278 6.824-5.766 9.4-5.492 4.537-9.005 5.928-7.468 2.088-11.86 2.088c-4.76 0-8.97-.33-12.63-1-3.662-.654-6.66-1.314-9.005-1.977V-9.094h10.213l.001 28.214zm0 45.685c1.023.293 2.472.566 4.34.822s4.188.387 6.973.387c5.5 0 9.884-1.813 13.178-5.436s4.94-8.768 4.94-15.43c0-2.93-.292-5.678-.878-8.236s-1.537-4.777-2.854-6.646-3.02-3.33-5.106-4.392-4.596-1.593-7.522-1.593c-2.785 0-5.346.478-7.688 1.43s-4.136 1.94-5.38 2.966l-.003 36.13zM95.987 28.18c-.732-2.67-1.96-4.98-3.68-6.917s-3.992-3.44-6.8-4.503-6.277-1.6-10.377-1.6c-3.6 0-6.92.273-9.995.822-1.646.293-3.034.596-4.178.9v8.833c1.155-.36 2.636-.713 4.45-1.058 2.526-.475 5.475-.713 8.843-.713 2.636 0 4.777.383 6.425 1.152s2.945 1.796 3.898 3.075 1.608 2.745 1.976 4.394a22.87 22.87 0 0 1 .55 4.998v2.854c-.293-.068-.807-.182-1.537-.33l-2.58-.492c-1-.182-2.03-.33-3.13-.44s-2.16-.162-3.185-.162c-3.223 0-6.297.33-9.225.985-2.93.66-5.5 1.688-7.687 3.077a15.29 15.29 0 0 0-5.218 5.49c-1.28 2.27-1.922 4.98-1.922 8.125 0 3.298.55 6.113 1.647 8.457s2.636 4.23 4.614 5.652c1.976 1.434 4.318 2.475 7.027 3.135s5.674.984 8.896.984c2.27 0 4.556-.093 6.864-.273a192.86 192.86 0 0 0 6.422-.604c1.98-.218 3.752-.456 5.328-.7l3.68-.604v-35.7c.004-3.222-.365-6.17-1.096-8.842zm-8.896 37.4c-1.244.3-2.8.497-4.666.604s-4 .168-6.425.168c-4.028 0-7.213-.717-9.554-2.145-2.347-1.427-3.516-3.97-3.516-7.634 0-1.976.475-3.565 1.428-4.774s2.14-2.156 3.567-2.854 3-1.152 4.725-1.375c1.717-.22 3.35-.326 4.886-.326 2.343 0 4.337.126 5.985.382s2.836.566 3.568.935v17.02zm188.686-37.4c-.732-2.67-1.96-4.98-3.678-6.917s-3.994-3.44-6.8-4.503-6.276-1.592-10.376-1.592c-3.6 0-6.917.273-9.995.822-1.646.293-3.033.596-4.175.9v8.833c1.152-.36 2.634-.713 4.452-1.058 2.523-.475 5.472-.713 8.84-.713 2.636 0 4.776.383 6.425 1.152s2.944 1.796 3.897 3.075 1.608 2.745 1.98 4.394a23.17 23.17 0 0 1 .549 4.998v2.854a60.8 60.8 0 0 0-1.539-.33l-2.58-.492a39.24 39.24 0 0 0-3.129-.441 32.91 32.91 0 0 0-3.186-.162c-3.223 0-6.297.33-9.225.985-2.928.66-5.492 1.688-7.687 3.077s-3.938 3.222-5.216 5.5-1.922 4.98-1.922 8.125c0 3.298.548 6.113 1.647 8.457s2.634 4.23 4.612 5.652c1.976 1.434 4.318 2.475 7.026 3.135s5.675.984 8.896.984c2.27 0 4.56-.093 6.865-.273s4.445-.38 6.424-.604 3.75-.456 5.326-.7l3.678-.604v-35.7c.002-3.222-.365-6.17-1.096-8.842zm-8.895 37.4c-1.246.3-2.8.497-4.667.604s-4 .168-6.425.168c-4.028 0-7.213-.717-9.553-2.145-2.347-1.427-3.516-3.97-3.516-7.634 0-1.976.475-3.565 1.428-4.774s2.14-2.156 3.567-2.854 3-1.152 4.724-1.375a38.36 38.36 0 0 1 4.886-.326c2.343 0 4.34.126 5.984.382s2.835.566 3.57.935l.002 17.02zm121.235-.5c-1.758 0-3.297-.22-4.613-.656a7.14 7.14 0 0 1-3.295-2.25c-.88-1.064-1.535-2.528-1.977-4.394s-.654-4.23-.654-7.085V25.162H390v-8.565h-12.412v-25.7h-10.215v60.72c0 3.8.307 7.16.93 10.05s1.7 5.328 3.24 7.305 3.57 3.46 6.096 4.45c2.523.984 5.727 1.478 9.6 1.478a36.46 36.46 0 0 0 2.752-.103v-9.77c-.6.026-1.22.046-1.873.046zm134.14-74.84h10.213v84.923h-10.213zm-14.34 38.6l-.148-.244-.254-.398-1.586-2.18c-5.387-6.827-13.373-10.842-21.854-10.842-5.707 0-11.23 1.848-15.982 5.344-.662.486-1.293 1.002-1.914 1.534a29.84 29.84 0 0 0-5.838 6.868l-.094.146-19.86 28.067a2.54 2.54 0 0 1-.414.451c-3.64 4.742-8.967 7.45-14.697 7.45-2.094 0-4.146-.363-6.113-1.074a19.17 19.17 0 0 1-1.152-.45c-.105-.045-.215-.105-.32-.172a23.3 23.3 0 0 1-1.557-.779 18.72 18.72 0 0 1-2.672-1.885c-.12-.102-.234-.207-.35-.312-.064-.05-.133-.103-.193-.16l-.125-.107a1.25 1.25 0 0 1-.115-.115l-.346-.367c-3.852-3.826-5.975-8.963-5.975-14.468 0-1.688.22-3.353.615-4.97.516-2.073 1.338-4.065 2.484-5.904a20.74 20.74 0 0 1 1.52-2.078c.06-.082.115-.16.18-.236l.133-.162c.13-.16.258-.315.398-.467 3.625-3.96 8.473-6.14 13.645-6.14a18.18 18.18 0 0 1 1.461.067c.244.02.486.056.727.086.248.03.5.06.738.102.22.037.44.082.662.125a14.8 14.8 0 0 1 .857.202c.176.044.354.088.525.14.463.135.928.283 1.383.46a15.35 15.35 0 0 1 .832.342c.088.04.176.086.266.137a19.26 19.26 0 0 1 4.256 2.696l.53.467c.2.18.396.365.6.564l.1.083.312.318c.682.7 1.22 1.342 1.697 1.985a70.78 70.78 0 0 0 .29.385c.2.28.436.594.662.95l2.7 3.822 2.34 3.32 5.898-8.308-2.88-4.096c-.014-.023-1.008-1.543-1.008-1.543-.096-.1-.172-.2-.252-.298-5.45-7.6-13.715-11.957-22.678-11.957-5.695 0-11.2 1.776-15.9 5.14-1.627 1.16-3.107 2.484-4.45 3.933-5.117 5.535-8.064 12.973-8.064 20.83 0 5.807 1.604 11.445 4.635 16.316.01.02.3.467.35.562.596.9 1.242 1.77 1.912 2.6 5.385 6.573 13.22 10.428 21.53 10.428 5.477 0 10.906-1.817 15.703-5.254a2.81 2.81 0 0 1 .314-.199c1.55-1.145 2.97-2.46 4.268-3.887a29.51 29.51 0 0 0 2.268-2.775L468.07 34.5c3.5-5.88 9.492-9.388 16.03-9.388a17.67 17.67 0 0 1 3.721.396c1.238.268 2.453.667 3.633 1.2a2.72 2.72 0 0 1 .408.228c.4.2.8.374 1.143.564.027.014.055.027.08.044a19.31 19.31 0 0 1 3.986 3.03c3.87 3.834 6 8.982 6 14.502a20.58 20.58 0 0 1-.477 4.41c-.76 3.5-2.412 6.746-4.852 9.405-3.523 3.85-8.2 6-13.2 6.127-.145.004-.287.015-.432.015-.44 0-.875-.027-1.314-.062-.193-.015-.393-.032-.586-.056-.178-.02-.357-.047-.535-.07-.55-.078-1.096-.182-1.64-.307-.717-.172-1.424-.37-2.123-.633a14.19 14.19 0 0 1-.949-.386c-.08-.032-.154-.07-.23-.1-2.188-.996-4.154-2.396-5.863-4.17a19.99 19.99 0 0 1-1.688-1.976c-.027-.028-.2-.28-.2-.28-.234-.312-.494-.664-.746-1.063l-2.697-3.826-2.36-3.356-5.9 8.312 2.902 4.13c.016.023 1.014 1.544 1.014 1.544.088.093.168.2.248.298C466.872 70.63 475.137 75 484.1 75c5.695 0 11.203-1.775 15.914-5.143 1.734-1.236 3.3-2.668 4.72-4.234 4.95-5.5 7.8-12.8 7.8-20.523.001-5.775-1.586-11.388-4.583-16.24z"/></svg>
